<svg width="515" height="400" viewBox="0 0 515 400" fill="none" xmlns="http://www.w3.org/2000/svg">
<circle cx="467" cy="279" r="10" fill="#E4E4E4"/>
<circle cx="241" cy="200" r="200" fill="#F1F1F1"/>
<rect x="142" y="61" width="204" height="252" rx="24" fill="white"/>
<rect x="162" y="89" width="82" height="16" rx="8" fill="black"/>
<rect x="162" y="134" width="163" height="16" rx="8" fill="#D5D5D5"/>
<rect x="162" y="179" width="163" height="16" rx="8" fill="#D5D5D5"/>
<rect x="162" y="224" width="163" height="16" rx="8" fill="#D5D5D5"/>
<rect x="162" y="269" width="163" height="16" rx="8" fill="#D5D5D5"/>
<rect x="359" y="24" width="156" height="61" rx="9" fill="#F9FAFB"/>
<circle cx="404" cy="54" r="10" fill="#CDC6DB"/>
<rect x="426" y="44" width="54" height="20" rx="10" fill="#D5D5D5"/>
<path d="M302.625 323.5C356.68 323.5 400.5 279.68 400.5 225.625C400.5 171.57 356.68 127.75 302.625 127.75C248.57 127.75 204.75 171.57 204.75 225.625C204.75 279.68 248.57 323.5 302.625 323.5Z" fill="#D9D9D9" fill-opacity="0.5" stroke="#CEC6DB" stroke-width="20" stroke-linecap="round" stroke-linejoin="round"/>
<path d="M275.216 198.5L329.932 253.216" stroke="black" stroke-width="20" stroke-linecap="round" stroke-linejoin="round"/>
<path d="M275.5 253.216L330.216 198.5" stroke="black" stroke-width="20" stroke-linecap="round" stroke-linejoin="round"/>
<path d="M388.863 331.002C394.627 348.402 407.785 350.142 417.899 334.917C427.143 320.997 421.053 309.578 404.305 309.578C391.908 309.469 384.948 319.148 388.863 331.002Z" fill="#CEC6DB"/>
<path d="M3 169.5L37 152.5L42 149.5L55 140L60.63 135.308C64.856 131.787 68.5694 127.692 71.6626 123.143V123.143C74.2124 119.394 76.322 115.363 77.9498 111.131L80.5 104.5M80.5 104.5L80.2798 103.399C79.1227 97.6135 76.1732 92.3394 71.8498 88.3249L70.599 87.1634C66.655 83.501 61.565 81.3166 56.1933 80.9808L54.2865 80.8617C50.5289 80.6268 46.7956 81.6079 43.6389 83.6597L41.8353 84.832C39.6759 86.2357 38.0565 88.3305 37.242 90.7739V90.7739C36.4373 93.1881 36.4651 95.8023 37.321 98.1989L37.3499 98.2797C38.1007 100.382 39.4409 102.224 41.2104 103.585L42.4971 104.575C44.1518 105.848 46.025 106.807 48.0246 107.407L50.2831 108.085C53.4067 109.022 56.6624 109.443 59.9216 109.33L61.9464 109.26C66.9425 109.088 71.8685 108.031 76.4954 106.138L80.5 104.5ZM80.5 104.5V104.5C90.4714 97.8524 99.7029 90.157 108.037 81.5452L110.5 79L133 54" stroke="black" stroke-width="5" stroke-linecap="round"/>
<path d="M93.5963 325.963L96.1024 312.001C96.2962 310.921 97.8348 310.896 98.0645 311.968L101.366 327.375C101.448 327.756 101.743 328.055 102.124 328.141L114.206 330.869C115.13 331.078 115.273 332.334 114.421 332.745L102.839 338.336C102.621 338.442 102.448 338.623 102.353 338.847L98.0655 348.982C97.7023 349.84 96.4657 349.779 96.1895 348.888L92.6264 337.407C92.5457 337.147 92.3622 336.931 92.1186 336.809L83.4543 332.477C82.6886 332.094 82.7266 330.989 83.5169 330.66L92.9967 326.71C93.3104 326.579 93.5363 326.298 93.5963 325.963Z" stroke="#CEC6DB" stroke-width="5" stroke-linecap="round"/>
</svg>
